<svg
                    width="25"
                    height="25"
                    viewBox="0 0 25 25"
                    fill="none"
                    xmlns="http://www.w3.org/2000/svg"
                  >
                    <path
                      d="M19.9227 12.4591V0H3.29272C1.49341 0 0.0212402 1.47217 0.0212402 3.27148V21.7285C0.0212402 23.5353 1.48594 25 3.29272 25H18.578C22.0779 25 24.994 22.1365 24.9789 18.6367C24.9656 15.5938 22.7961 13.0506 19.9227 12.4591ZM18.4605 12.3321C15.2296 12.4243 12.597 14.9471 12.3307 18.1322H5.93452V1.46216H18.4605V12.3321ZM3.27168 1.46216H4.47236V18.1322H3.45513C2.74033 18.1322 2.07603 18.352 1.52573 18.7271V3.20811C1.52573 2.24536 2.30894 1.46216 3.27168 1.46216ZM3.45513 23.5378C2.36792 23.5378 1.4834 22.6533 1.4834 21.5661C1.4834 20.4789 2.36792 19.5944 3.45513 19.5944H12.3765C12.4381 20.0113 12.5405 20.4151 12.6794 20.8017H3.7688V22.2639H13.4329C13.7626 22.7397 14.1555 23.1686 14.5998 23.5378H3.45513ZM18.6435 23.5378C15.9564 23.5378 13.7703 21.3518 13.7703 18.6646C13.7703 15.9775 15.9564 13.7915 18.6435 13.7915C21.3306 13.7915 23.5167 15.9775 23.5167 18.6646C23.5167 21.3518 21.3306 23.5378 18.6435 23.5378Z"
                      fill="white"
                    />
                    <path
                      d="M19.3745 16.4365H17.9124V17.9335H16.4153V19.3957H17.9124V20.8927H19.3745V19.3957H20.8715V17.9335H19.3745V16.4365Z"
                      fill="white"
                    />
                    <path
                      d="M9.83496 4.30518H14.7285V5.76733H9.83496V4.30518Z"
                      fill="white"
                    />
                    <path
                      d="M8.18188 7.47949H16.3814V8.94165H8.18188V7.47949Z"
                      fill="white"
                    />
                  </svg>
