<svg width="260" height="150" viewBox="0 0 260 150" fill="none" xmlns="http://www.w3.org/2000/svg">
<rect x="1" y="1" width="258" height="148" fill="#C4C4C4" fill-opacity="0.2" stroke="black" stroke-width="2" stroke-dasharray="20 20"/>
<path d="M115 86.8692V101.25C115 101.582 115.132 101.899 115.366 102.134C115.601 102.368 115.919 102.5 116.25 102.5H158.75C159.082 102.5 159.4 102.368 159.634 102.134C159.868 101.899 160 101.582 160 101.25V71.25C159.999 70.2243 159.747 69.2144 159.265 68.3089L150 50.9375V28.75C150 28.4185 149.868 28.1005 149.634 27.8661C149.4 27.6317 149.082 27.5 148.75 27.5H116.25C115.919 27.5 115.601 27.6317 115.366 27.8661C115.132 28.1005 115 28.4185 115 28.75V33.1362L100.877 37.557C100.72 37.6061 100.574 37.6855 100.449 37.7907C100.323 37.896 100.219 38.025 100.142 38.1705C100.066 38.3159 100.02 38.475 100.005 38.6385C99.9903 38.802 100.008 38.9668 100.057 39.1234L115 86.8692ZM113.407 44.1142L112.66 41.7273L115 40.9948V61.757L110.202 46.4273L112.588 45.6805C112.904 45.5814 113.168 45.3607 113.322 45.067C113.475 44.7733 113.506 44.4306 113.407 44.1142ZM157.5 71.25V100H150C147.058 99.9966 144.235 98.8425 142.133 96.7844C140.031 94.7263 138.818 91.9277 138.753 88.9867C138.815 88.6615 138.746 88.3246 138.561 88.0502L130.453 76.0494C130.173 75.6415 129.975 75.182 129.873 74.6976C129.771 74.2131 129.766 73.7132 129.858 73.2267C129.95 72.7403 130.137 72.2768 130.41 71.8632C130.682 71.4495 131.033 71.0938 131.443 70.8166C131.853 70.5394 132.315 70.3462 132.8 70.2482C133.285 70.1501 133.785 70.1491 134.271 70.2452C134.756 70.3413 135.218 70.5327 135.63 70.8082C136.041 71.0838 136.394 71.4381 136.667 71.8506C136.675 71.8614 136.683 71.8722 136.69 71.8828L143.988 81.9822C144.104 82.1424 144.256 82.2729 144.432 82.3629C144.608 82.4529 144.802 82.4999 145 82.5H148.75C149.082 82.5 149.4 82.3683 149.634 82.1339C149.868 81.8995 150 81.5815 150 81.25V56.25L157.059 69.4853C157.348 70.0287 157.499 70.6346 157.5 71.25ZM125 91.25H122.5V38.75H125C125.332 38.75 125.65 38.6183 125.884 38.3839C126.118 38.1495 126.25 37.8315 126.25 37.5V35H138.75V37.5C138.75 37.8315 138.882 38.1495 139.116 38.3839C139.351 38.6183 139.669 38.75 140 38.75H142.5V75.6562L138.727 70.4339C138.579 70.2185 138.419 70.0125 138.246 69.817C139.21 68.6658 139.807 67.2512 139.959 65.7568C140.11 64.2624 139.809 62.7569 139.095 61.4355C138.381 60.114 137.286 59.0375 135.953 58.3455C134.62 57.6535 133.11 57.3778 131.618 57.5542C130.126 57.7306 128.722 58.351 127.587 59.3349C126.452 60.3187 125.639 61.6208 125.252 63.0724C124.866 64.524 124.925 66.0581 125.42 67.476C125.916 68.8939 126.826 70.1302 128.033 71.0247C127.505 72.027 127.259 73.1537 127.32 74.285C127.381 75.4162 127.748 76.5097 128.381 77.4492L136.254 89.1023C136.305 91.1562 136.818 93.1721 137.756 95H126.25V92.5C126.25 92.1685 126.118 91.8505 125.884 91.6161C125.65 91.3817 125.332 91.25 125 91.25ZM130.061 68.7712C129.911 68.8722 129.768 68.9798 129.629 69.0917C128.8 68.5101 128.167 67.6904 127.814 66.741C127.461 65.7917 127.405 64.7575 127.652 63.7754C127.9 62.7933 128.44 61.9096 129.201 61.2413C129.962 60.573 130.908 60.1515 131.914 60.0327C132.92 59.914 133.938 60.1035 134.834 60.5762C135.73 61.0489 136.461 61.7825 136.931 62.6799C137.4 63.5773 137.586 64.5962 137.464 65.6017C137.342 66.6071 136.917 67.5517 136.246 68.3105C135.264 67.8425 134.177 67.6389 133.092 67.7197C132.007 67.8005 130.962 68.163 130.061 68.7712ZM117.5 30H147.5V80H145.639L145 79.1158V37.5C145 37.1685 144.868 36.8505 144.634 36.6161C144.4 36.3817 144.082 36.25 143.75 36.25H141.25V33.75C141.25 33.4185 141.118 33.1005 140.884 32.8661C140.65 32.6317 140.332 32.5 140 32.5H125C124.669 32.5 124.351 32.6317 124.116 32.8661C123.882 33.1005 123.75 33.4185 123.75 33.75V36.25H121.25C120.919 36.25 120.601 36.3817 120.366 36.6161C120.132 36.8505 120 37.1685 120 37.5V92.5C120 92.8315 120.132 93.1495 120.366 93.3839C120.601 93.6183 120.919 93.75 121.25 93.75H123.75V96.25C123.75 96.5815 123.882 96.8995 124.116 97.1339C124.351 97.3683 124.669 97.5 125 97.5H139.405C140.191 98.4499 141.1 99.2906 142.109 100H117.5V30ZM115 35.7558V38.375L110.72 39.7147C110.404 39.8137 110.14 40.0344 109.986 40.3281C109.833 40.6218 109.802 40.9646 109.901 41.2809L110.648 43.668L108.262 44.4147C108.106 44.4637 107.96 44.5432 107.834 44.6484C107.708 44.7537 107.604 44.8827 107.528 45.0282C107.452 45.1736 107.406 45.3327 107.391 45.4962C107.376 45.6597 107.394 45.8244 107.443 45.9811L115 70.1269V78.4991L102.816 39.5695L115 35.7558Z" fill="black" fill-opacity="0.3"/>
<path d="M45.724 116.256H47.146L52.564 129H50.8L49.504 125.868H43.132L41.818 129H40.108L45.724 116.256ZM46.408 118.2H46.372L43.726 124.464H48.928L46.408 118.2ZM58.6138 121.764H56.1298V125.976C56.1298 126.252 56.1358 126.51 56.1478 126.75C56.1598 126.978 56.2078 127.182 56.2918 127.362C56.3758 127.53 56.5018 127.668 56.6698 127.776C56.8378 127.872 57.0778 127.92 57.3898 127.92C57.5938 127.92 57.8038 127.896 58.0198 127.848C58.2358 127.8 58.4398 127.728 58.6318 127.632L58.6858 128.91C58.4458 129.018 58.1758 129.096 57.8758 129.144C57.5878 129.192 57.3118 129.216 57.0478 129.216C56.5438 129.216 56.1418 129.15 55.8418 129.018C55.5418 128.886 55.3078 128.7 55.1398 128.46C54.9718 128.22 54.8578 127.926 54.7978 127.578C54.7498 127.218 54.7258 126.822 54.7258 126.39V121.764H52.8898V120.576H54.7258V118.182H56.1298V120.576H58.6138V121.764ZM64.9595 121.764H62.4755V125.976C62.4755 126.252 62.4815 126.51 62.4935 126.75C62.5055 126.978 62.5535 127.182 62.6375 127.362C62.7215 127.53 62.8475 127.668 63.0155 127.776C63.1835 127.872 63.4235 127.92 63.7355 127.92C63.9395 127.92 64.1495 127.896 64.3655 127.848C64.5815 127.8 64.7855 127.728 64.9775 127.632L65.0315 128.91C64.7915 129.018 64.5215 129.096 64.2215 129.144C63.9335 129.192 63.6575 129.216 63.3935 129.216C62.8895 129.216 62.4875 129.15 62.1875 129.018C61.8875 128.886 61.6535 128.7 61.4855 128.46C61.3175 128.22 61.2035 127.926 61.1435 127.578C61.0955 127.218 61.0715 126.822 61.0715 126.39V121.764H59.2355V120.576H61.0715V118.182H62.4755V120.576H64.9595V121.764ZM66.5717 121.656C67.0037 121.212 67.5137 120.888 68.1017 120.684C68.7017 120.468 69.3077 120.36 69.9197 120.36C71.1677 120.36 72.0677 120.654 72.6197 121.242C73.1717 121.83 73.4477 122.724 73.4477 123.924V127.542C73.4477 127.782 73.4597 128.034 73.4837 128.298C73.5077 128.55 73.5377 128.784 73.5737 129H72.2237C72.1757 128.808 72.1457 128.598 72.1337 128.37C72.1337 128.13 72.1337 127.92 72.1337 127.74H72.0977C71.8217 128.172 71.4497 128.526 70.9817 128.802C70.5257 129.078 69.9737 129.216 69.3257 129.216C68.8937 129.216 68.4857 129.162 68.1017 129.054C67.7297 128.946 67.3997 128.79 67.1117 128.586C66.8357 128.37 66.6137 128.106 66.4457 127.794C66.2777 127.482 66.1937 127.122 66.1937 126.714C66.1937 126.018 66.3737 125.472 66.7337 125.076C67.0937 124.68 67.5377 124.386 68.0657 124.194C68.6057 124.002 69.1817 123.882 69.7937 123.834C70.4177 123.786 70.9877 123.762 71.5037 123.762H72.0437V123.51C72.0437 122.898 71.8577 122.436 71.4857 122.124C71.1257 121.812 70.6157 121.656 69.9557 121.656C69.4997 121.656 69.0497 121.734 68.6057 121.89C68.1737 122.034 67.7897 122.262 67.4537 122.574L66.5717 121.656ZM70.6397 124.95C69.7397 124.95 69.0257 125.076 68.4977 125.328C67.9697 125.58 67.7057 125.994 67.7057 126.57C67.7057 127.098 67.8797 127.476 68.2277 127.704C68.5877 127.92 69.0317 128.028 69.5597 128.028C69.9677 128.028 70.3217 127.962 70.6217 127.83C70.9337 127.686 71.1917 127.5 71.3957 127.272C71.5997 127.044 71.7557 126.78 71.8637 126.48C71.9717 126.168 72.0317 125.838 72.0437 125.49V124.95H70.6397ZM82.0076 122.682C81.7076 122.322 81.3836 122.064 81.0356 121.908C80.6876 121.74 80.3036 121.656 79.8836 121.656C79.4156 121.656 79.0016 121.74 78.6416 121.908C78.2816 122.064 77.9816 122.286 77.7416 122.574C77.5136 122.862 77.3396 123.198 77.2196 123.582C77.0996 123.954 77.0396 124.356 77.0396 124.788C77.0396 125.22 77.1056 125.628 77.2376 126.012C77.3816 126.384 77.5736 126.714 77.8136 127.002C78.0656 127.29 78.3656 127.518 78.7136 127.686C79.0616 127.842 79.4516 127.92 79.8836 127.92C80.8076 127.92 81.5216 127.572 82.0256 126.876L83.0696 127.866C82.6616 128.334 82.1816 128.676 81.6296 128.892C81.0776 129.108 80.4956 129.216 79.8836 129.216C79.2356 129.216 78.6416 129.108 78.1016 128.892C77.5616 128.676 77.0996 128.37 76.7156 127.974C76.3436 127.578 76.0496 127.11 75.8336 126.57C75.6296 126.03 75.5276 125.436 75.5276 124.788C75.5276 124.152 75.6296 123.564 75.8336 123.024C76.0496 122.484 76.3496 122.016 76.7336 121.62C77.1176 121.224 77.5736 120.918 78.1016 120.702C78.6416 120.474 79.2356 120.36 79.8836 120.36C80.5076 120.36 81.0956 120.468 81.6476 120.684C82.2116 120.9 82.7036 121.236 83.1236 121.692L82.0076 122.682ZM84.6972 115.392H86.1012V121.746H86.1372C86.2332 121.578 86.3652 121.416 86.5332 121.26C86.7012 121.092 86.8992 120.942 87.1272 120.81C87.3672 120.678 87.6312 120.57 87.9192 120.486C88.2072 120.402 88.5132 120.36 88.8372 120.36C89.3892 120.36 89.8632 120.444 90.2592 120.612C90.6672 120.78 91.0032 121.014 91.2672 121.314C91.5312 121.614 91.7232 121.98 91.8432 122.412C91.9752 122.832 92.0412 123.294 92.0412 123.798V129H90.6372V123.942C90.6372 123.234 90.4812 122.676 90.1692 122.268C89.8572 121.86 89.3712 121.656 88.7112 121.656C88.2552 121.656 87.8592 121.734 87.5232 121.89C87.1992 122.046 86.9292 122.268 86.7132 122.556C86.5092 122.844 86.3532 123.186 86.2452 123.582C86.1492 123.978 86.1012 124.416 86.1012 124.896V129H84.6972V115.392ZM102.223 127.47C101.719 128.118 101.167 128.574 100.567 128.838C99.9672 129.09 99.2712 129.216 98.4792 129.216C97.8192 129.216 97.2252 129.102 96.6972 128.874C96.1692 128.634 95.7192 128.316 95.3472 127.92C94.9872 127.524 94.7052 127.056 94.5012 126.516C94.3092 125.976 94.2132 125.4 94.2132 124.788C94.2132 124.14 94.3212 123.546 94.5372 123.006C94.7532 122.454 95.0532 121.986 95.4372 121.602C95.8212 121.206 96.2772 120.9 96.8052 120.684C97.3332 120.468 97.9092 120.36 98.5332 120.36C99.1212 120.36 99.6612 120.462 100.153 120.666C100.645 120.858 101.065 121.146 101.413 121.53C101.773 121.902 102.049 122.364 102.241 122.916C102.433 123.456 102.529 124.074 102.529 124.77V125.22H95.7252C95.7492 125.58 95.8332 125.928 95.9772 126.264C96.1332 126.588 96.3312 126.876 96.5712 127.128C96.8112 127.368 97.0932 127.56 97.4172 127.704C97.7412 127.848 98.0952 127.92 98.4792 127.92C99.0912 127.92 99.6072 127.812 100.027 127.596C100.447 127.38 100.825 127.062 101.161 126.642L102.223 127.47ZM101.017 124.032C100.993 123.312 100.759 122.736 100.315 122.304C99.8712 121.872 99.2592 121.656 98.4792 121.656C97.6992 121.656 97.0692 121.872 96.5892 122.304C96.1092 122.736 95.8212 123.312 95.7252 124.032H101.017ZM109.225 124.788C109.225 124.128 109.339 123.528 109.567 122.988C109.795 122.448 110.107 121.986 110.503 121.602C110.899 121.206 111.373 120.9 111.925 120.684C112.477 120.468 113.077 120.36 113.725 120.36C114.373 120.36 114.973 120.468 115.525 120.684C116.077 120.9 116.551 121.206 116.947 121.602C117.343 121.986 117.655 122.448 117.883 122.988C118.111 123.528 118.225 124.128 118.225 124.788C118.225 125.448 118.111 126.048 117.883 126.588C117.655 127.128 117.343 127.596 116.947 127.992C116.551 128.376 116.077 128.676 115.525 128.892C114.973 129.108 114.373 129.216 113.725 129.216C113.077 129.216 112.477 129.108 111.925 128.892C111.373 128.676 110.899 128.376 110.503 127.992C110.107 127.596 109.795 127.128 109.567 126.588C109.339 126.048 109.225 125.448 109.225 124.788ZM110.737 124.788C110.737 125.232 110.803 125.646 110.935 126.03C111.079 126.402 111.283 126.732 111.547 127.02C111.811 127.296 112.123 127.518 112.483 127.686C112.855 127.842 113.269 127.92 113.725 127.92C114.181 127.92 114.589 127.842 114.949 127.686C115.321 127.518 115.639 127.296 115.903 127.02C116.167 126.732 116.365 126.402 116.497 126.03C116.641 125.646 116.713 125.232 116.713 124.788C116.713 124.344 116.641 123.936 116.497 123.564C116.365 123.18 116.167 122.85 115.903 122.574C115.639 122.286 115.321 122.064 114.949 121.908C114.589 121.74 114.181 121.656 113.725 121.656C113.269 121.656 112.855 121.74 112.483 121.908C112.123 122.064 111.811 122.286 111.547 122.574C111.283 122.85 111.079 123.18 110.935 123.564C110.803 123.936 110.737 124.344 110.737 124.788ZM121.118 121.764H119.282V120.576H121.118V118.686C121.118 118.17 121.166 117.702 121.262 117.282C121.358 116.85 121.52 116.478 121.748 116.166C121.988 115.854 122.3 115.614 122.684 115.446C123.068 115.266 123.542 115.176 124.106 115.176C124.286 115.176 124.478 115.194 124.682 115.23C124.886 115.266 125.054 115.32 125.186 115.392L124.988 116.652C124.652 116.532 124.334 116.472 124.034 116.472C123.674 116.472 123.392 116.538 123.188 116.67C122.984 116.79 122.828 116.964 122.72 117.192C122.624 117.408 122.564 117.672 122.54 117.984C122.528 118.296 122.522 118.632 122.522 118.992V120.576H124.574V121.764H122.522V129H121.118V121.764ZM135.694 121.764H133.21V125.976C133.21 126.252 133.216 126.51 133.228 126.75C133.24 126.978 133.288 127.182 133.372 127.362C133.456 127.53 133.582 127.668 133.75 127.776C133.918 127.872 134.158 127.92 134.47 127.92C134.674 127.92 134.884 127.896 135.1 127.848C135.316 127.8 135.52 127.728 135.712 127.632L135.766 128.91C135.526 129.018 135.256 129.096 134.956 129.144C134.668 129.192 134.392 129.216 134.128 129.216C133.624 129.216 133.222 129.15 132.922 129.018C132.622 128.886 132.388 128.7 132.22 128.46C132.052 128.22 131.938 127.926 131.878 127.578C131.83 127.218 131.806 126.822 131.806 126.39V121.764H129.97V120.576H131.806V118.182H133.21V120.576H135.694V121.764ZM137.414 122.574C137.414 122.19 137.402 121.83 137.378 121.494C137.354 121.158 137.342 120.852 137.342 120.576H138.674C138.674 120.804 138.68 121.032 138.692 121.26C138.704 121.488 138.71 121.722 138.71 121.962H138.746C138.842 121.758 138.974 121.56 139.142 121.368C139.322 121.176 139.532 121.008 139.772 120.864C140.012 120.708 140.282 120.588 140.582 120.504C140.882 120.408 141.206 120.36 141.554 120.36C141.65 120.36 141.746 120.366 141.842 120.378C141.938 120.39 142.034 120.414 142.13 120.45L142.04 121.872C141.8 121.8 141.548 121.764 141.284 121.764C140.42 121.764 139.79 122.046 139.394 122.61C139.01 123.162 138.818 123.924 138.818 124.896V129H137.414V122.574ZM143.634 121.656C144.066 121.212 144.576 120.888 145.164 120.684C145.764 120.468 146.37 120.36 146.982 120.36C148.23 120.36 149.13 120.654 149.682 121.242C150.234 121.83 150.51 122.724 150.51 123.924V127.542C150.51 127.782 150.522 128.034 150.546 128.298C150.57 128.55 150.6 128.784 150.636 129H149.286C149.238 128.808 149.208 128.598 149.196 128.37C149.196 128.13 149.196 127.92 149.196 127.74H149.16C148.884 128.172 148.512 128.526 148.044 128.802C147.588 129.078 147.036 129.216 146.388 129.216C145.956 129.216 145.548 129.162 145.164 129.054C144.792 128.946 144.462 128.79 144.174 128.586C143.898 128.37 143.676 128.106 143.508 127.794C143.34 127.482 143.256 127.122 143.256 126.714C143.256 126.018 143.436 125.472 143.796 125.076C144.156 124.68 144.6 124.386 145.128 124.194C145.668 124.002 146.244 123.882 146.856 123.834C147.48 123.786 148.05 123.762 148.566 123.762H149.106V123.51C149.106 122.898 148.92 122.436 148.548 122.124C148.188 121.812 147.678 121.656 147.018 121.656C146.562 121.656 146.112 121.734 145.668 121.89C145.236 122.034 144.852 122.262 144.516 122.574L143.634 121.656ZM147.702 124.95C146.802 124.95 146.088 125.076 145.56 125.328C145.032 125.58 144.768 125.994 144.768 126.57C144.768 127.098 144.942 127.476 145.29 127.704C145.65 127.92 146.094 128.028 146.622 128.028C147.03 128.028 147.384 127.962 147.684 127.83C147.996 127.686 148.254 127.5 148.458 127.272C148.662 127.044 148.818 126.78 148.926 126.48C149.034 126.168 149.094 125.838 149.106 125.49V124.95H147.702ZM153.076 122.574C153.076 122.19 153.064 121.83 153.04 121.494C153.016 121.158 153.004 120.852 153.004 120.576H154.336C154.336 120.804 154.342 121.032 154.354 121.26C154.366 121.488 154.372 121.722 154.372 121.962H154.408C154.504 121.758 154.636 121.56 154.804 121.368C154.984 121.176 155.194 121.008 155.434 120.864C155.674 120.708 155.944 120.588 156.244 120.504C156.544 120.408 156.868 120.36 157.216 120.36C157.768 120.36 158.242 120.444 158.638 120.612C159.046 120.78 159.382 121.014 159.646 121.314C159.91 121.614 160.102 121.98 160.222 122.412C160.354 122.832 160.42 123.294 160.42 123.798V129H159.016V123.942C159.016 123.234 158.86 122.676 158.548 122.268C158.236 121.86 157.75 121.656 157.09 121.656C156.634 121.656 156.238 121.734 155.902 121.89C155.578 122.046 155.308 122.268 155.092 122.556C154.888 122.844 154.732 123.186 154.624 123.582C154.528 123.978 154.48 124.416 154.48 124.896V129H153.076V122.574ZM163.258 126.786C163.534 127.134 163.834 127.41 164.158 127.614C164.494 127.818 164.914 127.92 165.418 127.92C165.634 127.92 165.85 127.896 166.066 127.848C166.294 127.8 166.498 127.722 166.678 127.614C166.858 127.506 167.002 127.374 167.11 127.218C167.218 127.05 167.272 126.852 167.272 126.624C167.272 126.396 167.218 126.21 167.11 126.066C167.014 125.922 166.882 125.802 166.714 125.706C166.546 125.598 166.354 125.514 166.138 125.454C165.922 125.394 165.7 125.34 165.472 125.292C165.076 125.208 164.698 125.112 164.338 125.004C163.978 124.896 163.66 124.758 163.384 124.59C163.12 124.41 162.904 124.182 162.736 123.906C162.58 123.63 162.502 123.276 162.502 122.844C162.502 122.436 162.592 122.076 162.772 121.764C162.952 121.452 163.192 121.194 163.492 120.99C163.792 120.786 164.128 120.63 164.5 120.522C164.872 120.414 165.256 120.36 165.652 120.36C166.252 120.36 166.804 120.48 167.308 120.72C167.824 120.96 168.226 121.35 168.514 121.89L167.344 122.664C167.164 122.364 166.924 122.124 166.624 121.944C166.336 121.752 165.982 121.656 165.562 121.656C165.37 121.656 165.172 121.68 164.968 121.728C164.776 121.776 164.602 121.848 164.446 121.944C164.29 122.04 164.158 122.166 164.05 122.322C163.954 122.466 163.906 122.634 163.906 122.826C163.906 123.006 163.96 123.162 164.068 123.294C164.188 123.414 164.344 123.522 164.536 123.618C164.74 123.714 164.968 123.798 165.22 123.87C165.484 123.942 165.754 124.002 166.03 124.05C166.402 124.122 166.756 124.218 167.092 124.338C167.428 124.446 167.722 124.596 167.974 124.788C168.226 124.98 168.424 125.22 168.568 125.508C168.712 125.796 168.784 126.15 168.784 126.57C168.784 127.05 168.688 127.458 168.496 127.794C168.304 128.13 168.046 128.406 167.722 128.622C167.41 128.826 167.05 128.976 166.642 129.072C166.246 129.168 165.838 129.216 165.418 129.216C164.698 129.216 164.074 129.108 163.546 128.892C163.03 128.664 162.562 128.25 162.142 127.65L163.258 126.786ZM170.634 121.656C171.066 121.212 171.576 120.888 172.164 120.684C172.764 120.468 173.37 120.36 173.982 120.36C175.23 120.36 176.13 120.654 176.682 121.242C177.234 121.83 177.51 122.724 177.51 123.924V127.542C177.51 127.782 177.522 128.034 177.546 128.298C177.57 128.55 177.6 128.784 177.636 129H176.286C176.238 128.808 176.208 128.598 176.196 128.37C176.196 128.13 176.196 127.92 176.196 127.74H176.16C175.884 128.172 175.512 128.526 175.044 128.802C174.588 129.078 174.036 129.216 173.388 129.216C172.956 129.216 172.548 129.162 172.164 129.054C171.792 128.946 171.462 128.79 171.174 128.586C170.898 128.37 170.676 128.106 170.508 127.794C170.34 127.482 170.256 127.122 170.256 126.714C170.256 126.018 170.436 125.472 170.796 125.076C171.156 124.68 171.6 124.386 172.128 124.194C172.668 124.002 173.244 123.882 173.856 123.834C174.48 123.786 175.05 123.762 175.566 123.762H176.106V123.51C176.106 122.898 175.92 122.436 175.548 122.124C175.188 121.812 174.678 121.656 174.018 121.656C173.562 121.656 173.112 121.734 172.668 121.89C172.236 122.034 171.852 122.262 171.516 122.574L170.634 121.656ZM174.702 124.95C173.802 124.95 173.088 125.076 172.56 125.328C172.032 125.58 171.768 125.994 171.768 126.57C171.768 127.098 171.942 127.476 172.29 127.704C172.65 127.92 173.094 128.028 173.622 128.028C174.03 128.028 174.384 127.962 174.684 127.83C174.996 127.686 175.254 127.5 175.458 127.272C175.662 127.044 175.818 126.78 175.926 126.48C176.034 126.168 176.094 125.838 176.106 125.49V124.95H174.702ZM186.07 122.682C185.77 122.322 185.446 122.064 185.098 121.908C184.75 121.74 184.366 121.656 183.946 121.656C183.478 121.656 183.064 121.74 182.704 121.908C182.344 122.064 182.044 122.286 181.804 122.574C181.576 122.862 181.402 123.198 181.282 123.582C181.162 123.954 181.102 124.356 181.102 124.788C181.102 125.22 181.168 125.628 181.3 126.012C181.444 126.384 181.636 126.714 181.876 127.002C182.128 127.29 182.428 127.518 182.776 127.686C183.124 127.842 183.514 127.92 183.946 127.92C184.87 127.92 185.584 127.572 186.088 126.876L187.132 127.866C186.724 128.334 186.244 128.676 185.692 128.892C185.14 129.108 184.558 129.216 183.946 129.216C183.298 129.216 182.704 129.108 182.164 128.892C181.624 128.676 181.162 128.37 180.778 127.974C180.406 127.578 180.112 127.11 179.896 126.57C179.692 126.03 179.59 125.436 179.59 124.788C179.59 124.152 179.692 123.564 179.896 123.024C180.112 122.484 180.412 122.016 180.796 121.62C181.18 121.224 181.636 120.918 182.164 120.702C182.704 120.474 183.298 120.36 183.946 120.36C184.57 120.36 185.158 120.468 185.71 120.684C186.274 120.9 186.766 121.236 187.186 121.692L186.07 122.682ZM193.368 121.764H190.884V125.976C190.884 126.252 190.89 126.51 190.902 126.75C190.914 126.978 190.962 127.182 191.046 127.362C191.13 127.53 191.256 127.668 191.424 127.776C191.592 127.872 191.832 127.92 192.144 127.92C192.348 127.92 192.558 127.896 192.774 127.848C192.99 127.8 193.194 127.728 193.386 127.632L193.44 128.91C193.2 129.018 192.93 129.096 192.63 129.144C192.342 129.192 192.066 129.216 191.802 129.216C191.298 129.216 190.896 129.15 190.596 129.018C190.296 128.886 190.062 128.7 189.894 128.46C189.726 128.22 189.612 127.926 189.552 127.578C189.504 127.218 189.48 126.822 189.48 126.39V121.764H187.644V120.576H189.48V118.182H190.884V120.576H193.368V121.764ZM195.231 120.576H196.635V129H195.231V120.576ZM194.907 117.282C194.907 117.006 195.003 116.766 195.195 116.562C195.399 116.358 195.645 116.256 195.933 116.256C196.221 116.256 196.461 116.358 196.653 116.562C196.857 116.766 196.959 117.006 196.959 117.282C196.959 117.582 196.863 117.828 196.671 118.02C196.479 118.212 196.233 118.308 195.933 118.308C195.633 118.308 195.387 118.212 195.195 118.02C195.003 117.828 194.907 117.582 194.907 117.282ZM198.944 124.788C198.944 124.128 199.058 123.528 199.286 122.988C199.514 122.448 199.826 121.986 200.222 121.602C200.618 121.206 201.092 120.9 201.644 120.684C202.196 120.468 202.796 120.36 203.444 120.36C204.092 120.36 204.692 120.468 205.244 120.684C205.796 120.9 206.27 121.206 206.666 121.602C207.062 121.986 207.374 122.448 207.602 122.988C207.83 123.528 207.944 124.128 207.944 124.788C207.944 125.448 207.83 126.048 207.602 126.588C207.374 127.128 207.062 127.596 206.666 127.992C206.27 128.376 205.796 128.676 205.244 128.892C204.692 129.108 204.092 129.216 203.444 129.216C202.796 129.216 202.196 129.108 201.644 128.892C201.092 128.676 200.618 128.376 200.222 127.992C199.826 127.596 199.514 127.128 199.286 126.588C199.058 126.048 198.944 125.448 198.944 124.788ZM200.456 124.788C200.456 125.232 200.522 125.646 200.654 126.03C200.798 126.402 201.002 126.732 201.266 127.02C201.53 127.296 201.842 127.518 202.202 127.686C202.574 127.842 202.988 127.92 203.444 127.92C203.9 127.92 204.308 127.842 204.668 127.686C205.04 127.518 205.358 127.296 205.622 127.02C205.886 126.732 206.084 126.402 206.216 126.03C206.36 125.646 206.432 125.232 206.432 124.788C206.432 124.344 206.36 123.936 206.216 123.564C206.084 123.18 205.886 122.85 205.622 122.574C205.358 122.286 205.04 122.064 204.668 121.908C204.308 121.74 203.9 121.656 203.444 121.656C202.988 121.656 202.574 121.74 202.202 121.908C201.842 122.064 201.53 122.286 201.266 122.574C201.002 122.85 200.798 123.18 200.654 123.564C200.522 123.936 200.456 124.344 200.456 124.788ZM210.117 122.574C210.117 122.19 210.105 121.83 210.081 121.494C210.057 121.158 210.045 120.852 210.045 120.576H211.377C211.377 120.804 211.383 121.032 211.395 121.26C211.407 121.488 211.413 121.722 211.413 121.962H211.449C211.545 121.758 211.677 121.56 211.845 121.368C212.025 121.176 212.235 121.008 212.475 120.864C212.715 120.708 212.985 120.588 213.285 120.504C213.585 120.408 213.909 120.36 214.257 120.36C214.809 120.36 215.283 120.444 215.679 120.612C216.087 120.78 216.423 121.014 216.687 121.314C216.951 121.614 217.143 121.98 217.263 122.412C217.395 122.832 217.461 123.294 217.461 123.798V129H216.057V123.942C216.057 123.234 215.901 122.676 215.589 122.268C215.277 121.86 214.791 121.656 214.131 121.656C213.675 121.656 213.279 121.734 212.943 121.89C212.619 122.046 212.349 122.268 212.133 122.556C211.929 122.844 211.773 123.186 211.665 123.582C211.569 123.978 211.521 124.416 211.521 124.896V129H210.117V122.574Z" fill="black" fill-opacity="0.5"/>
</svg>
