<svg
                      width="25"
                      height="25"
                      viewBox="0 0 25 25"
                      fill="none"
                      xmlns="http://www.w3.org/2000/svg"
                    >
                      <path
                        d="M24.218 11.7192H14.3224C13.8911 11.7192 13.5411 11.3692 13.5411 10.938C13.5411 10.5067 13.8911 10.1567 14.3224 10.1567H24.218C24.6492 10.1567 24.9992 10.5067 24.9992 10.938C24.9992 11.3692 24.6492 11.7192 24.218 11.7192Z"
                        fill="#929292"
                      />
                      <path
                        d="M20.3118 15.6252C20.1117 15.6252 19.9118 15.5491 19.7596 15.3962C19.4545 15.0908 19.4545 14.5961 19.7596 14.2909L23.1138 10.9369L19.7596 7.58276C19.4545 7.27759 19.4545 6.78284 19.7596 6.47768C20.065 6.17232 20.5597 6.17232 20.8649 6.47768L24.771 10.3838C25.0762 10.689 25.0762 11.1837 24.771 11.4889L20.8649 15.395C20.7118 15.5491 20.5119 15.6252 20.3118 15.6252Z"
                        fill="#929292"
                      />
                      <path
                        d="M8.33314 25C8.11018 25 7.89866 24.9687 7.68733 24.9031L1.41864 22.8146C0.565702 22.5167 0 21.7219 0 20.8335V2.08406C0 0.935113 0.934381 0.000732422 2.08333 0.000732422C2.3061 0.000732422 2.51762 0.032012 2.72914 0.0976227L8.99764 2.1861C9.85077 2.48402 10.4163 3.27879 10.4163 4.16721V22.9166C10.4163 24.0656 9.48209 25 8.33314 25ZM2.08333 1.56318C1.79686 1.56318 1.56245 1.79759 1.56245 2.08406V20.8335C1.56245 21.0553 1.71141 21.2615 1.92388 21.3355L8.1632 23.4146C8.20802 23.4291 8.26638 23.4375 8.33314 23.4375C8.61961 23.4375 8.85383 23.2031 8.85383 22.9166V4.16721C8.85383 3.94539 8.70487 3.73921 8.4924 3.66521L2.25308 1.58607C2.20826 1.57158 2.1499 1.56318 2.08333 1.56318Z"
                        fill="#929292"
                      />
                      <path
                        d="M15.8849 8.33387C15.4536 8.33387 15.1037 7.98388 15.1037 7.55264V2.86529C15.1037 2.14758 14.5194 1.56318 13.8017 1.56318H2.08335C1.65211 1.56318 1.30212 1.2132 1.30212 0.781958C1.30212 0.35072 1.65211 0.000732422 2.08335 0.000732422H13.8017C15.3819 0.000732422 16.6661 1.2851 16.6661 2.86529V7.55264C16.6661 7.98388 16.3161 8.33387 15.8849 8.33387Z"
                        fill="#929292"
                      />
                      <path
                        d="M13.8016 21.8751H9.63499C9.20375 21.8751 8.85376 21.5251 8.85376 21.0939C8.85376 20.6627 9.20375 20.3127 9.63499 20.3127H13.8016C14.5194 20.3127 15.1036 19.7283 15.1036 19.0106V14.3232C15.1036 13.892 15.4536 13.542 15.8848 13.542C16.316 13.542 16.666 13.892 16.666 14.3232V19.0106C16.666 20.5907 15.3818 21.8751 13.8016 21.8751Z"
                        fill="#929292"
                      />
                    </svg> 
